# 3ds Max Wavefront OBJ Exporter v0.97b - (c)2007 guruware
# 创建的文件:24.12.2016 11:35:21

#
# object GeoSphere001
#

v  0.0000 1.0000 -0.0000
v  0.5257 0.8507 -0.0000
v  0.1625 0.8507 -0.5000
v  0.8944 0.4472 -0.0000
v  0.6882 0.5257 -0.5000
v  0.2764 0.4472 -0.8507
v  -0.4253 0.8507 -0.3090
v  -0.2629 0.5257 -0.8090
v  -0.7236 0.4472 -0.5257
v  -0.4253 0.8507 0.3090
v  -0.8507 0.5257 0.0000
v  -0.7236 0.4472 0.5257
v  0.1625 0.8507 0.5000
v  -0.2629 0.5257 0.8090
v  0.2764 0.4472 0.8507
v  0.6882 0.5257 0.5000
v  0.9511 0.0000 0.3090
v  0.9511 0.0000 -0.3090
v  0.7236 -0.4472 0.5257
v  0.8507 -0.5257 0.0000
v  0.7236 -0.4472 -0.5257
v  0.5878 0.0000 -0.8090
v  -0.0000 0.0000 -1.0000
v  0.2629 -0.5257 -0.8090
v  -0.2764 -0.4472 -0.8507
v  -0.5878 0.0000 -0.8090
v  -0.9511 0.0000 -0.3090
v  -0.6882 -0.5257 -0.5000
v  -0.8944 -0.4472 0.0000
v  -0.9511 0.0000 0.3090
v  -0.5878 0.0000 0.8090
v  -0.6882 -0.5257 0.5000
v  -0.2764 -0.4472 0.8507
v  0.0000 0.0000 1.0000
v  0.5878 0.0000 0.8090
v  0.2629 -0.5257 0.8090
v  0.0000 -1.0000 -0.0000
v  -0.1625 -0.8507 -0.5000
v  0.4253 -0.8507 -0.3090
v  -0.5257 -0.8507 0.0000
v  -0.1625 -0.8507 0.5000
v  0.4253 -0.8507 0.3090
# 42 vertices

vn 0.2680 0.9435 -0.1947
vn 0.7240 0.6617 -0.1947
vn 0.4911 0.7947 -0.3568
vn 0.4089 0.6617 -0.6284
vn -0.1024 0.9435 -0.3151
vn 0.0385 0.6617 -0.7488
vn -0.1876 0.7947 -0.5774
vn -0.4713 0.6617 -0.5831
vn -0.3313 0.9435 0.0000
vn -0.7002 0.6617 -0.2680
vn -0.6071 0.7947 0.0000
vn -0.7002 0.6617 0.2680
vn -0.1024 0.9435 0.3151
vn -0.4713 0.6617 0.5831
vn -0.1876 0.7947 0.5774
vn 0.0385 0.6617 0.7488
vn 0.2680 0.9435 0.1947
vn 0.4089 0.6617 0.6284
vn 0.4911 0.7947 0.3568
vn 0.7240 0.6617 0.1947
vn 0.9921 0.1256 0.0000
vn 0.9050 -0.3304 0.2680
vn 0.9822 -0.1876 0.0000
vn 0.9050 -0.3304 -0.2680
vn 0.3066 0.1256 -0.9435
vn 0.5346 -0.3304 -0.7779
vn 0.3035 -0.1876 -0.9342
vn 0.0247 -0.3304 -0.9435
vn -0.8026 0.1256 -0.5831
vn -0.5746 -0.3304 -0.7488
vn -0.7947 -0.1876 -0.5774
vn -0.8897 -0.3304 -0.3151
vn -0.8026 0.1256 0.5831
vn -0.8897 -0.3304 0.3151
vn -0.7947 -0.1876 0.5774
vn -0.5746 -0.3304 0.7488
vn 0.3066 0.1256 0.9435
vn 0.0247 -0.3304 0.9435
vn 0.3035 -0.1876 0.9342
vn 0.5346 -0.3304 0.7779
vn 0.8026 -0.1256 -0.5831
vn 0.5746 0.3304 -0.7488
vn 0.7947 0.1876 -0.5774
vn 0.8897 0.3304 -0.3151
vn -0.3066 -0.1256 -0.9435
vn -0.5346 0.3304 -0.7779
vn -0.3035 0.1876 -0.9342
vn -0.0247 0.3304 -0.9435
vn -0.9921 -0.1256 0.0000
vn -0.9050 0.3304 0.2680
vn -0.9822 0.1876 0.0000
vn -0.9050 0.3304 -0.2680
vn -0.3066 -0.1256 0.9435
vn -0.0247 0.3304 0.9435
vn -0.3035 0.1876 0.9342
vn -0.5346 0.3304 0.7779
vn 0.8026 -0.1256 0.5831
vn 0.8897 0.3304 0.3151
vn 0.7947 0.1876 0.5774
vn 0.5746 0.3304 0.7488
vn 0.1024 -0.9435 -0.3151
vn -0.0385 -0.6617 -0.7488
vn 0.1876 -0.7947 -0.5774
vn 0.4713 -0.6617 -0.5831
vn -0.2680 -0.9435 -0.1947
vn -0.7240 -0.6617 -0.1947
vn -0.4911 -0.7947 -0.3568
vn -0.4089 -0.6617 -0.6284
vn -0.2680 -0.9435 0.1947
vn -0.4089 -0.6617 0.6284
vn -0.4911 -0.7947 0.3568
vn -0.7240 -0.6617 0.1947
vn 0.1024 -0.9435 0.3151
vn 0.4713 -0.6617 0.5831
vn 0.1876 -0.7947 0.5774
vn -0.0385 -0.6617 0.7488
vn 0.3313 -0.9435 0.0000
vn 0.7002 -0.6617 -0.2680
vn 0.6071 -0.7947 0.0000
vn 0.7002 -0.6617 0.2680
# 80 vertex normals

g GeoSphere001
f 1//1 2//1 3//1 
f 2//2 4//2 5//2 
f 2//3 5//3 3//3 
f 3//4 5//4 6//4 
f 1//5 3//5 7//5 
f 3//6 6//6 8//6 
f 3//7 8//7 7//7 
f 7//8 8//8 9//8 
f 1//9 7//9 10//9 
f 7//10 9//10 11//10 
f 7//11 11//11 10//11 
f 10//12 11//12 12//12 
f 1//13 10//13 13//13 
f 10//14 12//14 14//14 
f 10//15 14//15 13//15 
f 13//16 14//16 15//16 
f 1//17 13//17 2//17 
f 13//18 15//18 16//18 
f 13//19 16//19 2//19 
f 2//20 16//20 4//20 
f 4//21 17//21 18//21 
f 17//22 19//22 20//22 
f 17//23 20//23 18//23 
f 18//24 20//24 21//24 
f 6//25 22//25 23//25 
f 22//26 21//26 24//26 
f 22//27 24//27 23//27 
f 23//28 24//28 25//28 
f 9//29 26//29 27//29 
f 26//30 25//30 28//30 
f 26//31 28//31 27//31 
f 27//32 28//32 29//32 
f 12//33 30//33 31//33 
f 30//34 29//34 32//34 
f 30//35 32//35 31//35 
f 31//36 32//36 33//36 
f 15//37 34//37 35//37 
f 34//38 33//38 36//38 
f 34//39 36//39 35//39 
f 35//40 36//40 19//40 
f 21//41 22//41 18//41 
f 22//42 6//42 5//42 
f 22//43 5//43 18//43 
f 18//44 5//44 4//44 
f 25//45 26//45 23//45 
f 26//46 9//46 8//46 
f 26//47 8//47 23//47 
f 23//48 8//48 6//48 
f 29//49 30//49 27//49 
f 30//50 12//50 11//50 
f 30//51 11//51 27//51 
f 27//52 11//52 9//52 
f 33//53 34//53 31//53 
f 34//54 15//54 14//54 
f 34//55 14//55 31//55 
f 31//56 14//56 12//56 
f 19//57 17//57 35//57 
f 17//58 4//58 16//58 
f 17//59 16//59 35//59 
f 35//60 16//60 15//60 
f 37//61 38//61 39//61 
f 38//62 25//62 24//62 
f 38//63 24//63 39//63 
f 39//64 24//64 21//64 
f 37//65 40//65 38//65 
f 40//66 29//66 28//66 
f 40//67 28//67 38//67 
f 38//68 28//68 25//68 
f 37//69 41//69 40//69 
f 41//70 33//70 32//70 
f 41//71 32//71 40//71 
f 40//72 32//72 29//72 
f 37//73 42//73 41//73 
f 42//74 19//74 36//74 
f 42//75 36//75 41//75 
f 41//76 36//76 33//76 
f 37//77 39//77 42//77 
f 39//78 21//78 20//78 
f 39//79 20//79 42//79 
f 42//80 20//80 19//80 
# 80 faces

